<?xml version="1.0" standalone="no"?>
<!DOCTYPE svg PUBLIC "-//W3C//DTD SVG 20010904//EN"
 "http://www.w3.org/TR/2001/REC-SVG-20010904/DTD/svg10.dtd">
<svg version="1.0" xmlns="http://www.w3.org/2000/svg"
 width="512.000000pt" height="512.000000pt" viewBox="0 0 512.000000 512.000000"
 preserveAspectRatio="xMidYMid meet">
<metadata>
Created by potrace 1.15, written by Peter Selinger 2001-2017
</metadata>
<g transform="translate(0.000000,512.000000) scale(0.100000,-0.100000)"
fill="#000000" stroke="none">
<path d="M2138 4403 c250 -2 655 -2 900 0 246 1 42 2 -453 2 -495 0 -696 -1
-447 -2z"/>
<path d="M1656 4390 c26 -5 25 -6 -16 -12 -39 -6 -165 -41 -225 -62 -13 -5
-11 -2 5 8 30 18 21 21 -14 5 -14 -7 -23 -15 -21 -19 2 -4 -7 -12 -21 -19 -17
-8 -23 -8 -19 0 10 15 -49 -16 -119 -64 -69 -47 -218 -186 -211 -197 3 -4 -3
-16 -13 -27 -9 -10 -12 -12 -7 -3 9 13 8 13 -7 1 -10 -7 -15 -17 -12 -22 3 -5
-9 -29 -26 -54 -68 -98 -158 -330 -161 -414 -1 -25 -1 -25 -7 -3 -4 13 -7
-380 -7 -872 0 -493 3 -896 8 -896 4 0 7 -12 6 -27 l-1 -28 -8 25 c-7 23 -8
24 -9 3 -1 -12 7 -28 16 -35 10 -7 19 -22 20 -33 1 -11 4 -29 7 -40 2 -11 5
-24 6 -30 1 -5 5 0 10 12 14 36 191 130 355 188 28 10 55 22 62 27 7 6 16 3
23 -9 11 -17 11 -17 6 1 -31 98 -36 199 -36 777 0 631 4 692 49 827 38 111 82
181 170 274 88 93 189 159 309 202 l87 31 730 0 730 0 88 -31 c124 -45 190
-87 288 -184 138 -137 207 -278 229 -471 8 -62 10 -299 8 -694 -4 -582 -5
-602 -26 -680 -76 -275 -280 -482 -549 -556 -49 -14 -126 -24 -208 -29 -71 -4
-112 -8 -90 -8 31 -2 41 -6 42 -19 0 -10 13 -52 28 -93 15 -41 29 -105 32
-142 3 -37 9 -66 13 -63 4 2 4 -16 0 -40 -4 -25 -4 -45 -1 -45 3 0 -1 -5 -9
-10 -10 -7 21 -10 97 -10 64 0 114 -4 118 -10 4 -7 -270 -11 -812 -12 l-818
-3 780 -3 c742 -3 1053 3 945 19 -36 5 -39 6 -15 8 70 5 157 23 232 47 15 5
16 4 3 -5 -18 -13 -3 -13 25 -1 13 6 15 9 5 9 -8 1 5 11 30 23 25 12 67 32 94
45 26 14 45 19 41 12 -11 -16 50 20 84 51 15 14 18 18 7 10 -21 -15 -21 -15
-2 8 11 12 25 21 31 18 15 -5 164 145 159 160 -3 6 3 17 13 25 17 13 17 13 3
-6 -15 -20 -14 -20 8 -1 23 20 30 32 12 21 -17 -10 -11 12 7 26 14 12 16 12 8
0 -5 -9 -4 -12 3 -8 5 4 8 15 5 25 -2 10 3 25 13 33 16 13 16 12 5 -11 -11
-23 -11 -24 3 -6 9 10 13 23 10 27 -2 5 11 39 29 76 43 85 72 174 92 282 13
71 15 208 15 916 0 902 -1 920 -56 1083 -13 40 -21 78 -18 84 4 6 3 8 -3 5
-12 -8 -56 81 -47 95 4 7 2 8 -4 4 -12 -7 -36 30 -27 44 3 5 0 12 -6 16 -8 5
-9 3 -4 -6 6 -9 4 -11 -4 -6 -7 5 -10 14 -7 22 3 7 0 16 -6 20 -7 5 -8 2 -3
-7 8 -12 6 -12 -9 0 -9 8 -15 20 -12 27 3 7 -3 18 -12 26 -16 12 -16 11 -2 -7
15 -20 14 -20 -8 -1 -23 20 -30 42 -9 30 33 -19 -108 115 -177 167 -78 59
-164 110 -151 90 4 -8 -2 -7 -19 0 -14 7 -23 15 -21 19 2 4 -7 12 -21 19 -35
16 -44 13 -14 -5 17 -10 18 -13 5 -8 -85 29 -178 55 -220 61 -44 6 -46 8 -21
13 17 3 -402 5 -929 5 -527 0 -946 -2 -929 -5z"/>
<path d="M1955 3674 c-11 -2 -45 -9 -75 -15 -143 -28 -263 -119 -321 -243 -59
-127 -62 -151 -66 -725 -4 -514 2 -705 28 -790 11 -37 13 -38 48 -33 88 13
475 4 551 -12 14 -3 52 -11 84 -17 107 -19 298 -88 409 -147 121 -64 261 -163
245 -173 -17 -11 60 -16 202 -13 334 7 511 126 587 394 17 60 18 115 18 690 0
566 -2 631 -18 690 -44 164 -130 274 -259 335 -136 63 -160 65 -820 64 -326
-1 -602 -3 -613 -5z m1421 -229 c110 -65 107 -228 -7 -285 -112 -58 -241 20
-241 145 0 129 136 206 248 140z m-625 -190 c176 -46 355 -190 436 -352 58
-116 77 -207 70 -346 -3 -85 -11 -130 -30 -185 -100 -282 -354 -464 -647 -464
-116 0 -208 21 -303 67 -383 187 -503 669 -253 1019 162 227 454 331 727 261z"/>
<path d="M2520 3029 c-296 -34 -469 -352 -341 -625 129 -276 494 -340 710
-124 171 171 171 451 0 623 -98 97 -229 142 -369 126z"/>
<path d="M765 2605 c0 -467 1 -657 2 -422 2 236 2 618 0 850 -1 232 -2 40 -2
-428z"/>
<path d="M4405 2605 c0 -462 1 -650 2 -417 2 233 2 611 0 840 -1 229 -2 39 -2
-423z"/>
</g>
</svg>
